<?xml version="1.0" encoding="utf-8"?>
<!-- Generator: Adobe Illustrator 25.0.0, SVG Export Plug-In . SVG Version: 6.00 Build 0)  -->
<svg version="1.1" id="Layer_1" xmlns="http://www.w3.org/2000/svg" xmlns:xlink="http://www.w3.org/1999/xlink" x="0px" y="0px"
	 viewBox="0 0 8.3 7.8" style="enable-background:new 0 0 8.3 7.8;" xml:space="preserve">
<style type="text/css">
	.st0{fill:#A5B7BE;}
</style>
<g id="Layer_2_1_">
	<g id="Layer_1-2">
		<path class="st0" d="M4.1,0.2C4,0.3,4,0.6,4.1,0.8l2.7,2.7H0.5C0.2,3.5,0,3.6,0,3.9c0,0.2,0.2,0.5,0.4,0.5c0,0,0,0,0.1,0h6.4
			L4.1,7.1C4,7.2,4,7.5,4.1,7.7c0.2,0.2,0.4,0.2,0.6,0.1c0,0,0,0,0,0l3.4-3.4c0.2-0.2,0.2-0.5,0-0.7L4.7,0.1C4.6,0,4.3,0,4.1,0.2
			C4.1,0.1,4.1,0.1,4.1,0.2z"/>
	</g>
</g>
</svg>
