<?xml version="1.0" encoding="utf-8"?>
<!-- Generator: Adobe Illustrator 25.0.0, SVG Export Plug-In . SVG Version: 6.00 Build 0)  -->
<svg version="1.1" id="Layer_1" xmlns="http://www.w3.org/2000/svg" xmlns:xlink="http://www.w3.org/1999/xlink" x="0px" y="0px"
	 viewBox="0 0 9.7 21.8" style="enable-background:new 0 0 9.7 21.8;" xml:space="preserve">
<style type="text/css">
	.st0{fill:#462D7A;}
</style>
<g id="Layer_2_1_">
	<g id="Layer_1-2">
		<path class="st0" d="M9.5,16.7c-0.1-0.1-0.5-0.1-0.7,0L5.4,20V0.6C5.4,0.2,5.3,0,4.9,0C4.6,0,4.3,0.2,4.3,0.5c0,0,0,0,0,0.1v19.5
			l-3.3-3.5c-0.1-0.1-0.5-0.1-0.7,0C0,17,0,17.2,0.1,17.4l0,0l4.2,4.2c0.2,0.2,0.6,0.2,0.9,0l4.4-4.2C9.7,17.3,9.7,17,9.5,16.7
			C9.6,16.7,9.6,16.7,9.5,16.7z"/>
	</g>
</g>
</svg>
