<?xml version="1.0" encoding="utf-8"?>
<!-- Generator: Adobe Illustrator 25.0.0, SVG Export Plug-In . SVG Version: 6.00 Build 0)  -->
<svg version="1.1" id="Layer_1" xmlns="http://www.w3.org/2000/svg" xmlns:xlink="http://www.w3.org/1999/xlink" x="0px" y="0px"
	 viewBox="0 0 15 15" style="enable-background:new 0 0 15 15;" xml:space="preserve">
<style type="text/css">
	.st0{fill:#FFFFFF;}
</style>
<g>
	<path class="st0" d="M7.5,1.4c3.4,0,6.1,2.8,6.1,6.1s-2.8,6.1-6.1,6.1s-6.1-2.8-6.1-6.1S4.1,1.4,7.5,1.4 M7.5,0C3.4,0,0,3.4,0,7.5
		S3.4,15,7.5,15S15,11.6,15,7.5S11.6,0,7.5,0L7.5,0z"/>
</g>
<g>
	<path class="st0" d="M7.5,3.9c-2,0-3.6,1.6-3.6,3.6s1.6,3.6,3.6,3.6s3.6-1.6,3.6-3.6S9.5,3.9,7.5,3.9z M7.5,10.2
		C6,10.2,4.8,9,4.8,7.5S6,4.8,7.5,4.8s2.7,1.2,2.7,2.7S9,10.2,7.5,10.2z"/>
</g>
</svg>
