<?xml version="1.0" encoding="utf-8"?>
<!-- Generator: Adobe Illustrator 24.3.0, SVG Export Plug-In . SVG Version: 6.00 Build 0)  -->
<svg version="1.1" id="Layer_1" xmlns="http://www.w3.org/2000/svg" xmlns:xlink="http://www.w3.org/1999/xlink" x="0px" y="0px"
	 viewBox="0 0 296.4 81.8" style="enable-background:new 0 0 296.4 81.8;" xml:space="preserve">
<style type="text/css">
	.st0{fill:#482979;}
	.st1{fill:#A7B7BF;}
</style>
<g>
	<path class="st0" d="M45.6,13.1c-3.5-1.8-8.9-4-15.9-4c-11.9,0-19.9,8.6-19.9,19.8s8,19.8,19.7,19.8c7.4,0,13-2.2,16.5-3.9v9
		c-2.3,1.3-8.6,3.9-16.9,3.9C12.4,57.6,0,45.3,0,28.9C0,12.6,12.4,0.2,29.3,0.2c8,0,13.9,2.6,16.3,3.9V13.1z"/>
	<path class="st0" d="M74.6,0.3h0.3l26.3,56.3H91l-4.9-11H63.4l-4.9,11H48.3L74.6,0.3z M82.9,38.4c-3.2-7.1-5.8-13.3-8.1-19.6
		c-2.4,5.8-5.2,12.9-8.2,19.6H82.9z"/>
	<path class="st0" d="M122,1.2c12.6,0,20.5,6.3,20.5,17.6c0,8.2-4.9,13.6-10.9,15.6l12.1,22.2h-10.4l-10.6-20.6h-9.8v20.6h-9.6V1.2
		H122z M112.8,9.4v18.9h9.7c6.2,0,10.2-3.3,10.2-9.4c0-6.2-4.2-9.5-10.7-9.5H112.8z"/>
	<path class="st0" d="M147.9,54.5V45c3.9,2,9.2,3.9,14.8,4c2,0,3.9-0.2,5.5-0.6c3.9-0.9,6.3-2.9,6.3-5.9c0-4.4-3.2-6.8-11.6-9.8
		c-10.2-3.6-15.6-7.9-15.6-16.9c0-9.7,8.1-15.6,19.3-15.6c5.5,0,10.9,1.4,14.2,2.8v9.1c-3.2-1.8-8.5-3.3-13.5-3.3
		c-6.3,0-10.6,2.6-10.6,6.9c0,3.9,2.9,6.5,11.4,9.6C178.4,29,184,33.3,184,42.1c0,9.7-7.4,15.6-19.8,15.6
		C157.8,57.6,151.8,56.1,147.9,54.5z"/>
</g>
<path class="st0" d="M295.1,57.5l-32.4-33.2c-0.8-0.8-1.8-1.7-2.7-2.5v34.8h-9.6V0.3h0.3l32.3,33.1l2.7,2.6V1.2h9.5v56.3H295.1z"/>
<path class="st0" d="M235.6,28.2c0,0.2,0,0.4,0,0.6c0,11.1-9,20.1-20,20.1s-20-9-20-20.1c0-11.1,9-20.1,20-20.1c1,0,1.9,0.1,2.8,0.2
	l4.1-8.1c-2.2-0.6-4.6-0.9-7-0.9C199.9,0,187,12.9,187,28.8s12.9,28.8,28.7,28.8c15.9,0,28.7-12.9,28.7-28.8c0-1.3-0.1-2.7-0.3-3.9
	L235.6,28.2z"/>
<path class="st1" d="M242.2,17.7c-0.8-2-1.9-3.9-3.2-5.7c-1.3-1.8-2.8-3.5-4.5-4.9c-1.5-1.4-3.2-2.6-5-3.6l-4.4,7.6l-8,13.9
	c-0.5-0.2-1-0.3-1.5-0.3c-2.2,0-4,1.8-4,4s1.8,4,4,4c2.2,0,4-1.8,4-4c0-0.4-0.1-0.7-0.1-1l14.6-6.5L242.2,17.7z"/>
<path class="st0" d="M228.5,31c-1,6.2-6.4,10.9-12.8,10.9c-7.2,0-13-5.9-13-13.1c0-7,5.5-12.7,12.3-13l1.6-3.2c-0.3,0-0.6,0-0.9,0
	c-8.9,0-16.2,7.3-16.2,16.3s7.2,16.3,16.2,16.3c8.7,0,15.7-6.8,16.1-15.4L228.5,31z"/>
<g>
	<path class="st1" d="M105.5,77.1v4.5h-2.2V69.2h3.9c2.8,0,4.5,1.4,4.5,3.9c0,2.5-1.7,3.9-4.5,3.9H105.5z M105.5,71v4.2h1.9
		c1.3,0,2.2-0.7,2.2-2.1c0-1.4-0.9-2.1-2.3-2.1H105.5z"/>
	<path class="st1" d="M121.7,69.2c2.8,0,4.6,1.4,4.6,3.9c0,1.8-1.1,3-2.4,3.5l2.7,5h-2.3l-2.4-4.6h-2.2v4.6h-2.1V69.2H121.7z
		 M119.6,71v4.2h2.2c1.4,0,2.3-0.7,2.3-2.1c0-1.4-0.9-2.1-2.4-2.1H119.6z"/>
	<path class="st1" d="M137.9,69c3.6,0,6.4,2.8,6.4,6.4c0,3.6-2.7,6.4-6.4,6.4c-3.7,0-6.4-2.8-6.4-6.4C131.5,71.8,134.3,69,137.9,69z
		 M137.9,79.8c2.5,0,4.2-1.9,4.2-4.4c0-2.5-1.8-4.4-4.2-4.4c-2.5,0-4.3,1.9-4.3,4.4C133.7,77.9,135.5,79.8,137.9,79.8z"/>
	<path class="st1" d="M159.7,69.2l-4.3,6.1l4.4,6.3h-2.5l-3.1-4.6l-3.1,4.6h-2.4l4.4-6.3l-4.3-6.1h2.4l3,4.5l3-4.5H159.7z"/>
	<path class="st1" d="M166.2,69.2l3.1,5.5l3.2-5.5h2.4l-4.5,7.6v4.9h-2.2v-4.9l-4.5-7.6H166.2z"/>
	<path class="st1" d="M191.2,69L191.2,69l5.9,12.6h-2.3l-1.1-2.5h-5.1l-1.1,2.5h-2.3L191.2,69z M193,77.5c-0.7-1.6-1.3-3-1.8-4.4
		c-0.5,1.3-1.2,2.9-1.8,4.4H193z"/>
	<path class="st1" d="M202.4,81.6V69.2h3.8c4.1,0,6.8,2.5,6.8,6.2c0,3.7-2.6,6.2-6.7,6.2H202.4z M204.5,71v8.8h1.6
		c2.8,0,4.6-1.8,4.6-4.4c0-2.6-1.8-4.4-4.6-4.4H204.5z"/>
	<path class="st1" d="M222.7,81.8L222.7,81.8l-6-12.6h2.3l1.7,3.7c0.7,1.7,1.4,3.1,1.9,4.5c0.5-1.3,1.3-2.9,2-4.5l1.7-3.7h2.3
		L222.7,81.8z"/>
	<path class="st1" d="M233.8,81.6V69.2h2.2v12.4H233.8z"/>
	<path class="st1" d="M242.5,81.1V79c0.9,0.4,2.1,0.9,3.3,0.9c0.4,0,0.9,0,1.2-0.1c0.9-0.2,1.4-0.7,1.4-1.3c0-1-0.7-1.5-2.6-2.2
		c-2.3-0.8-3.5-1.8-3.5-3.8c0-2.2,1.8-3.5,4.3-3.5c1.2,0,2.4,0.3,3.2,0.6v2c-0.7-0.4-1.9-0.7-3-0.7c-1.4,0-2.4,0.6-2.4,1.5
		c0,0.9,0.7,1.5,2.6,2.2c2.3,0.8,3.5,1.8,3.5,3.8c0,2.2-1.7,3.5-4.4,3.5C244.7,81.8,243.3,81.5,242.5,81.1z"/>
	<path class="st1" d="M262,69c3.6,0,6.4,2.8,6.4,6.4c0,3.6-2.7,6.4-6.4,6.4c-3.7,0-6.4-2.8-6.4-6.4C255.5,71.8,258.3,69,262,69z
		 M262,79.8c2.5,0,4.2-1.9,4.2-4.4c0-2.5-1.8-4.4-4.2-4.4c-2.5,0-4.3,1.9-4.3,4.4C257.7,77.9,259.5,79.8,262,79.8z"/>
	<path class="st1" d="M278.1,69.2c2.8,0,4.6,1.4,4.6,3.9c0,1.8-1.1,3-2.4,3.5l2.7,5h-2.3l-2.4-4.6h-2.2v4.6h-2.1V69.2H278.1z
		 M276.1,71v4.2h2.2c1.4,0,2.3-0.7,2.3-2.1c0-1.4-0.9-2.1-2.4-2.1H276.1z"/>
	<path class="st1" d="M288.3,81.1V79c0.9,0.4,2.1,0.9,3.3,0.9c0.4,0,0.9,0,1.2-0.1c0.9-0.2,1.4-0.7,1.4-1.3c0-1-0.7-1.5-2.6-2.2
		c-2.3-0.8-3.5-1.8-3.5-3.8c0-2.2,1.8-3.5,4.3-3.5c1.2,0,2.4,0.3,3.2,0.6v2c-0.7-0.4-1.9-0.7-3-0.7c-1.4,0-2.4,0.6-2.4,1.5
		c0,0.9,0.7,1.5,2.6,2.2c2.3,0.8,3.5,1.8,3.5,3.8c0,2.2-1.7,3.5-4.4,3.5C290.5,81.8,289.2,81.5,288.3,81.1z"/>
</g>
</svg>
