<?xml version="1.0" encoding="utf-8"?>
<!-- Generator: Adobe Illustrator 25.0.0, SVG Export Plug-In . SVG Version: 6.00 Build 0)  -->
<svg version="1.1" id="Layer_1" xmlns="http://www.w3.org/2000/svg" xmlns:xlink="http://www.w3.org/1999/xlink" x="0px" y="0px"
	 viewBox="0 0 98.6 99.2" style="enable-background:new 0 0 98.6 99.2;" xml:space="preserve">
<style type="text/css">
	.st0{clip-path:url(#SVGID_2_);}
	.st1{clip-path:url(#XMLID_2_);}
	.st2{fill:none;stroke:#BCBEC0;stroke-width:1.4464;}
	.st3{clip-path:url(#XMLID_3_);}
	.st4{clip-path:url(#XMLID_4_);}
	.st5{clip-path:url(#XMLID_5_);}
</style>
<g id="XMLID_2375_">
	<g>
		<defs>
			<path id="SVGID_1_" d="M0,98.6C0,98.6,0.1,98.6,0,98.6c54.5,0,98.7-44.1,98.7-98.6H0V98.6z"/>
		</defs>
		<clipPath id="SVGID_2_">
			<use xlink:href="#SVGID_1_"  style="overflow:visible;"/>
		</clipPath>
		<g class="st0">
			<g id="XMLID_196_">
				<defs>
					<rect id="XMLID_230_" x="71.7" y="-27.7" width="72.3" height="72.3"/>
				</defs>
				<clipPath id="XMLID_2_">
					<use xlink:href="#XMLID_230_"  style="overflow:visible;"/>
				</clipPath>
				<g id="XMLID_219_" class="st1">
					<line id="XMLID_229_" class="st2" x1="143.8" y1="41" x2="216.6" y2="41"/>
					<line id="XMLID_228_" class="st2" x1="143.8" y1="26.5" x2="216.6" y2="26.5"/>
					<line id="XMLID_227_" class="st2" x1="143.8" y1="12.1" x2="216.6" y2="12.1"/>
					<line id="XMLID_226_" class="st2" x1="143.8" y1="-2.4" x2="216.6" y2="-2.4"/>
					<line id="XMLID_225_" class="st2" x1="143.8" y1="-16.9" x2="216.6" y2="-16.9"/>
					<line id="XMLID_224_" class="st2" x1="143.8" y1="33.8" x2="216.6" y2="33.8"/>
					<line id="XMLID_223_" class="st2" x1="143.8" y1="19.3" x2="216.6" y2="19.3"/>
					<line id="XMLID_222_" class="st2" x1="143.8" y1="4.8" x2="216.6" y2="4.8"/>
					<line id="XMLID_221_" class="st2" x1="143.8" y1="-9.6" x2="216.6" y2="-9.6"/>
					<line id="XMLID_220_" class="st2" x1="143.8" y1="-24.1" x2="216.6" y2="-24.1"/>
				</g>
				<g id="XMLID_208_" class="st1">
					<line id="XMLID_218_" class="st2" x1="71.5" y1="41" x2="144.3" y2="41"/>
					<line id="XMLID_217_" class="st2" x1="71.5" y1="26.5" x2="144.3" y2="26.5"/>
					<line id="XMLID_216_" class="st2" x1="71.5" y1="12.1" x2="144.3" y2="12.1"/>
					<line id="XMLID_215_" class="st2" x1="71.5" y1="-2.4" x2="144.3" y2="-2.4"/>
					<line id="XMLID_214_" class="st2" x1="71.5" y1="-16.9" x2="144.3" y2="-16.9"/>
					<line id="XMLID_213_" class="st2" x1="71.5" y1="33.8" x2="144.3" y2="33.8"/>
					<line id="XMLID_212_" class="st2" x1="71.5" y1="19.3" x2="144.3" y2="19.3"/>
					<line id="XMLID_211_" class="st2" x1="71.5" y1="4.8" x2="144.3" y2="4.8"/>
					<line id="XMLID_210_" class="st2" x1="71.5" y1="-9.6" x2="144.3" y2="-9.6"/>
					<line id="XMLID_209_" class="st2" x1="71.5" y1="-24.1" x2="144.3" y2="-24.1"/>
				</g>
				<g id="XMLID_197_" class="st1">
					<line id="XMLID_207_" class="st2" x1="-0.9" y1="41" x2="72" y2="41"/>
					<line id="XMLID_206_" class="st2" x1="-0.9" y1="26.5" x2="72" y2="26.5"/>
					<line id="XMLID_205_" class="st2" x1="-0.9" y1="12.1" x2="72" y2="12.1"/>
					<line id="XMLID_204_" class="st2" x1="-0.9" y1="-2.4" x2="72" y2="-2.4"/>
					<line id="XMLID_203_" class="st2" x1="-0.9" y1="-16.9" x2="72" y2="-16.9"/>
					<line id="XMLID_202_" class="st2" x1="-0.9" y1="33.8" x2="72" y2="33.8"/>
					<line id="XMLID_201_" class="st2" x1="-0.9" y1="19.3" x2="72" y2="19.3"/>
					<line id="XMLID_200_" class="st2" x1="-0.9" y1="4.8" x2="72" y2="4.8"/>
					<line id="XMLID_199_" class="st2" x1="-0.9" y1="-9.6" x2="72" y2="-9.6"/>
					<line id="XMLID_198_" class="st2" x1="-0.9" y1="-24.1" x2="72" y2="-24.1"/>
				</g>
			</g>
		</g>
		<g class="st0">
			<g id="XMLID_161_">
				<defs>
					<rect id="XMLID_195_" x="71.7" y="44.6" width="72.3" height="72.3"/>
				</defs>
				<clipPath id="XMLID_3_">
					<use xlink:href="#XMLID_195_"  style="overflow:visible;"/>
				</clipPath>
				<g id="XMLID_184_" class="st3">
					<line id="XMLID_194_" class="st2" x1="143.8" y1="113.3" x2="216.6" y2="113.3"/>
					<line id="XMLID_193_" class="st2" x1="143.8" y1="98.8" x2="216.6" y2="98.8"/>
					<line id="XMLID_192_" class="st2" x1="143.8" y1="84.4" x2="216.6" y2="84.4"/>
					<line id="XMLID_191_" class="st2" x1="143.8" y1="69.9" x2="216.6" y2="69.9"/>
					<line id="XMLID_190_" class="st2" x1="143.8" y1="55.5" x2="216.6" y2="55.5"/>
					<line id="XMLID_189_" class="st2" x1="143.8" y1="106.1" x2="216.6" y2="106.1"/>
					<line id="XMLID_188_" class="st2" x1="143.8" y1="91.6" x2="216.6" y2="91.6"/>
					<line id="XMLID_187_" class="st2" x1="143.8" y1="77.2" x2="216.6" y2="77.2"/>
					<line id="XMLID_186_" class="st2" x1="143.8" y1="62.7" x2="216.6" y2="62.7"/>
					<line id="XMLID_185_" class="st2" x1="143.8" y1="48.2" x2="216.6" y2="48.2"/>
				</g>
				<g id="XMLID_173_" class="st3">
					<line id="XMLID_183_" class="st2" x1="71.5" y1="113.3" x2="144.3" y2="113.3"/>
					<line id="XMLID_182_" class="st2" x1="71.5" y1="98.8" x2="144.3" y2="98.8"/>
					<line id="XMLID_181_" class="st2" x1="71.5" y1="84.4" x2="144.3" y2="84.4"/>
					<line id="XMLID_180_" class="st2" x1="71.5" y1="69.9" x2="144.3" y2="69.9"/>
					<line id="XMLID_179_" class="st2" x1="71.5" y1="55.5" x2="144.3" y2="55.5"/>
					<line id="XMLID_178_" class="st2" x1="71.5" y1="106.1" x2="144.3" y2="106.1"/>
					<line id="XMLID_177_" class="st2" x1="71.5" y1="91.6" x2="144.3" y2="91.6"/>
					<line id="XMLID_176_" class="st2" x1="71.5" y1="77.2" x2="144.3" y2="77.2"/>
					<line id="XMLID_175_" class="st2" x1="71.5" y1="62.7" x2="144.3" y2="62.7"/>
					<line id="XMLID_174_" class="st2" x1="71.5" y1="48.2" x2="144.3" y2="48.2"/>
				</g>
				<g id="XMLID_162_" class="st3">
					<line id="XMLID_172_" class="st2" x1="-0.9" y1="113.3" x2="72" y2="113.3"/>
					<line id="XMLID_171_" class="st2" x1="-0.9" y1="98.8" x2="72" y2="98.8"/>
					<line id="XMLID_170_" class="st2" x1="-0.9" y1="84.4" x2="72" y2="84.4"/>
					<line id="XMLID_169_" class="st2" x1="-0.9" y1="69.9" x2="72" y2="69.9"/>
					<line id="XMLID_168_" class="st2" x1="-0.9" y1="55.5" x2="72" y2="55.5"/>
					<line id="XMLID_167_" class="st2" x1="-0.9" y1="106.1" x2="72" y2="106.1"/>
					<line id="XMLID_166_" class="st2" x1="-0.9" y1="91.6" x2="72" y2="91.6"/>
					<line id="XMLID_165_" class="st2" x1="-0.9" y1="77.2" x2="72" y2="77.2"/>
					<line id="XMLID_164_" class="st2" x1="-0.9" y1="62.7" x2="72" y2="62.7"/>
					<line id="XMLID_163_" class="st2" x1="-0.9" y1="48.2" x2="72" y2="48.2"/>
				</g>
			</g>
		</g>
		<g class="st0">
			<g id="XMLID_104_">
				<defs>
					<rect id="XMLID_160_" x="-0.6" y="-27.7" width="72.3" height="72.3"/>
				</defs>
				<clipPath id="XMLID_4_">
					<use xlink:href="#XMLID_160_"  style="overflow:visible;"/>
				</clipPath>
				<g id="XMLID_149_" class="st4">
					<line id="XMLID_159_" class="st2" x1="71.5" y1="41" x2="144.3" y2="41"/>
					<line id="XMLID_158_" class="st2" x1="71.5" y1="26.5" x2="144.3" y2="26.5"/>
					<line id="XMLID_157_" class="st2" x1="71.5" y1="12.1" x2="144.3" y2="12.1"/>
					<line id="XMLID_156_" class="st2" x1="71.5" y1="-2.4" x2="144.3" y2="-2.4"/>
					<line id="XMLID_155_" class="st2" x1="71.5" y1="-16.9" x2="144.3" y2="-16.9"/>
					<line id="XMLID_154_" class="st2" x1="71.5" y1="33.8" x2="144.3" y2="33.8"/>
					<line id="XMLID_153_" class="st2" x1="71.5" y1="19.3" x2="144.3" y2="19.3"/>
					<line id="XMLID_152_" class="st2" x1="71.5" y1="4.8" x2="144.3" y2="4.8"/>
					<line id="XMLID_151_" class="st2" x1="71.5" y1="-9.6" x2="144.3" y2="-9.6"/>
					<line id="XMLID_150_" class="st2" x1="71.5" y1="-24.1" x2="144.3" y2="-24.1"/>
				</g>
				<g id="XMLID_138_" class="st4">
					<line id="XMLID_148_" class="st2" x1="-0.9" y1="41" x2="72" y2="41"/>
					<line id="XMLID_147_" class="st2" x1="-0.9" y1="26.5" x2="72" y2="26.5"/>
					<line id="XMLID_146_" class="st2" x1="-0.9" y1="12.1" x2="72" y2="12.1"/>
					<line id="XMLID_145_" class="st2" x1="-0.9" y1="-2.4" x2="72" y2="-2.4"/>
					<line id="XMLID_144_" class="st2" x1="-0.9" y1="-16.9" x2="72" y2="-16.9"/>
					<line id="XMLID_143_" class="st2" x1="-0.9" y1="33.8" x2="72" y2="33.8"/>
					<line id="XMLID_142_" class="st2" x1="-0.9" y1="19.3" x2="72" y2="19.3"/>
					<line id="XMLID_141_" class="st2" x1="-0.9" y1="4.8" x2="72" y2="4.8"/>
					<line id="XMLID_140_" class="st2" x1="-0.9" y1="-9.6" x2="72" y2="-9.6"/>
					<line id="XMLID_139_" class="st2" x1="-0.9" y1="-24.1" x2="72" y2="-24.1"/>
				</g>
				<g id="XMLID_106_" class="st4">
					<line id="XMLID_137_" class="st2" x1="-73.2" y1="41" x2="-0.4" y2="41"/>
					<line id="XMLID_136_" class="st2" x1="-73.2" y1="26.5" x2="-0.4" y2="26.5"/>
					<line id="XMLID_135_" class="st2" x1="-73.2" y1="12.1" x2="-0.4" y2="12.1"/>
					<line id="XMLID_134_" class="st2" x1="-73.2" y1="-2.4" x2="-0.4" y2="-2.4"/>
					<line id="XMLID_133_" class="st2" x1="-73.2" y1="-16.9" x2="-0.4" y2="-16.9"/>
					<line id="XMLID_132_" class="st2" x1="-73.2" y1="33.8" x2="-0.4" y2="33.8"/>
					<line id="XMLID_127_" class="st2" x1="-73.2" y1="19.3" x2="-0.4" y2="19.3"/>
					<line id="XMLID_124_" class="st2" x1="-73.2" y1="4.8" x2="-0.4" y2="4.8"/>
					<line id="XMLID_122_" class="st2" x1="-73.2" y1="-9.6" x2="-0.4" y2="-9.6"/>
					<line id="XMLID_110_" class="st2" x1="-73.2" y1="-24.1" x2="-0.4" y2="-24.1"/>
				</g>
			</g>
		</g>
		<g class="st0">
			<g id="XMLID_36_">
				<defs>
					<rect id="XMLID_103_" x="-0.6" y="44.6" width="72.3" height="72.3"/>
				</defs>
				<clipPath id="XMLID_5_">
					<use xlink:href="#XMLID_103_"  style="overflow:visible;"/>
				</clipPath>
				<g id="XMLID_60_" class="st5">
					<line id="XMLID_97_" class="st2" x1="71.5" y1="113.3" x2="144.3" y2="113.3"/>
					<line id="XMLID_95_" class="st2" x1="71.5" y1="98.8" x2="144.3" y2="98.8"/>
					<line id="XMLID_94_" class="st2" x1="71.5" y1="84.4" x2="144.3" y2="84.4"/>
					<line id="XMLID_92_" class="st2" x1="71.5" y1="69.9" x2="144.3" y2="69.9"/>
					<line id="XMLID_89_" class="st2" x1="71.5" y1="55.5" x2="144.3" y2="55.5"/>
					<line id="XMLID_65_" class="st2" x1="71.5" y1="106.1" x2="144.3" y2="106.1"/>
					<line id="XMLID_64_" class="st2" x1="71.5" y1="91.6" x2="144.3" y2="91.6"/>
					<line id="XMLID_63_" class="st2" x1="71.5" y1="77.2" x2="144.3" y2="77.2"/>
					<line id="XMLID_62_" class="st2" x1="71.5" y1="62.7" x2="144.3" y2="62.7"/>
					<line id="XMLID_61_" class="st2" x1="71.5" y1="48.2" x2="144.3" y2="48.2"/>
				</g>
				<g id="XMLID_49_" class="st5">
					<line id="XMLID_59_" class="st2" x1="-0.9" y1="113.3" x2="72" y2="113.3"/>
					<line id="XMLID_58_" class="st2" x1="-0.9" y1="98.8" x2="72" y2="98.8"/>
					<line id="XMLID_57_" class="st2" x1="-0.9" y1="84.4" x2="72" y2="84.4"/>
					<line id="XMLID_56_" class="st2" x1="-0.9" y1="69.9" x2="72" y2="69.9"/>
					<line id="XMLID_55_" class="st2" x1="-0.9" y1="55.5" x2="72" y2="55.5"/>
					<line id="XMLID_54_" class="st2" x1="-0.9" y1="106.1" x2="72" y2="106.1"/>
					<line id="XMLID_53_" class="st2" x1="-0.9" y1="91.6" x2="72" y2="91.6"/>
					<line id="XMLID_52_" class="st2" x1="-0.9" y1="77.2" x2="72" y2="77.2"/>
					<line id="XMLID_51_" class="st2" x1="-0.9" y1="62.7" x2="72" y2="62.7"/>
					<line id="XMLID_50_" class="st2" x1="-0.9" y1="48.2" x2="72" y2="48.2"/>
				</g>
				<g id="XMLID_37_" class="st5">
					<line id="XMLID_48_" class="st2" x1="-73.2" y1="113.3" x2="-0.4" y2="113.3"/>
					<line id="XMLID_47_" class="st2" x1="-73.2" y1="98.8" x2="-0.4" y2="98.8"/>
					<line id="XMLID_46_" class="st2" x1="-73.2" y1="84.4" x2="-0.4" y2="84.4"/>
					<line id="XMLID_45_" class="st2" x1="-73.2" y1="69.9" x2="-0.4" y2="69.9"/>
					<line id="XMLID_44_" class="st2" x1="-73.2" y1="55.5" x2="-0.4" y2="55.5"/>
					<line id="XMLID_43_" class="st2" x1="-73.2" y1="106.1" x2="-0.4" y2="106.1"/>
					<line id="XMLID_41_" class="st2" x1="-73.2" y1="91.6" x2="-0.4" y2="91.6"/>
					<line id="XMLID_40_" class="st2" x1="-73.2" y1="77.2" x2="-0.4" y2="77.2"/>
					<line id="XMLID_39_" class="st2" x1="-73.2" y1="62.7" x2="-0.4" y2="62.7"/>
					<line id="XMLID_38_" class="st2" x1="-73.2" y1="48.2" x2="-0.4" y2="48.2"/>
				</g>
			</g>
		</g>
	</g>
</g>
</svg>
